# xmcd CD database file
#
# Track frame offsets:
#	150
#	19472
#	37971
#	53990
#	75924
#	98373
#	120651
#	141727
#	167320
#	189683
#	214299
#	240363
#
# Disc length: 3537 seconds
#
# Revision: 0
# Processed by: cddbd v1.4PL0 Copyright (c) Steve Scherf et al.
# Submitted via: CDex 1.50beta9
#
DISCID=990dcf0c
DTITLE=Paulo F.G - Te Deseo Suerte
DYEAR=2003
DGENRE=Salsa
TTITLE0=Me Gusta Tanto
TTITLE1=Fue un Error
TTITLE2=Te Deseo Suerte
TTITLE3=Esta Mania
TTITLE4=Enfrente a mi
TTITLE5=Preguntale a Ella
TTITLE6=Ay! Lola
TTITLE7=Algo en Ti
TTITLE8=Con la Verdad Sobre Mi
TTITLE9=Te Deseo Suerte (Version Salsa)
TTITLE10=El Mas Buscado
TTITLE11=A mi Tiempo (Bonus Track)
EXTD=YEAR: 2003
EXTT0=
EXTT1=
EXTT2=
EXTT3=
EXTT4=
EXTT5=
EXTT6=
EXTT7=
EXTT8=
EXTT9=
EXTT10=
EXTT11=
PLAYORDER=
